# xmcd
#
# Track frame offsets:
# 150
# 15408
# 26303
# 40169
# 57400
# 75413
# 89974
# 114183
# 127851
# 149689
# 171863
# 186085
# 196450
# 212965
# 229412
# 243608
# 256537
# 266015
# 283105
# 306280
#
# Disc length: 4392 seconds
#
#
# Revision: 0
# Processed by: cddbd v1.5.1PL0 Copyright (c) Steve Scherf et al.
# Submitted via: FreeRIP 2.90 
#
DISCID=1e112614
DTITLE=Boulder - Ripping Christ
DYEAR=2000
DGENRE=Heavy Metal
TTITLE0=DLR Is King
TTITLE1=Mayhem Gook
TTITLE2=Love Honky
TTITLE3=555
TTITLE4=Rage With the Dead
TTITLE5=Full Throttle
TTITLE6=Sinners Gross Beerd
TTITLE7=Amigbro
TTITLE8=the Power Of 1,000 Satanic Black Moons
TTITLE9=Anchored Down
TTITLE10=Kick the Pregnant
TTITLE11=Ming the Mercyless
TTITLE12=Shifty
TTITLE13=Kill the Captain
TTITLE14=Eternal Quest For Edward B. Yatsko
TTITLE15=In League With Satan
TTITLE16=T.G.W.
TTITLE17=Thrashed
TTITLE18=Pilzners Bible
TTITLE19=We Like No Hero
EXTD=
EXTT0=
EXTT1=
EXTT2=
EXTT3=
EXTT4=
EXTT5=
EXTT6=
EXTT7=
EXTT8=
EXTT9=
EXTT10=
EXTT11=
EXTT12=
EXTT13=
EXTT14=
EXTT15=
EXTT16=
EXTT17=
EXTT18=
EXTT19=
PLAYORDER=
